<svg xmlns="http://www.w3.org/2000/svg" width="30" height="30" viewBox="0 0 30 30">
    <g fill="none" fill-rule="evenodd">
        <path d="M0 0h30v30H0z"/>
        <path stroke="#0F60AF" stroke-linecap="round" stroke-linejoin="round" d="M9.791 26.345a12.561 12.561 0 0 1-4.196-3.055M24.192 23.29a12.547 12.547 0 0 1-4.195 3.055"/>
        <path stroke="#0F60AF" stroke-linecap="round" stroke-linejoin="round" d="M6.82 21.766l5.83-4.216h.001a4.015 4.015 0 0 1-2.209-3.584v-2.75A4.018 4.018 0 0 1 14.461 7.2h.866a4.018 4.018 0 0 1 4.02 4.018v2.749c0 1.567-.9 2.922-2.21 3.584h.001l5.83 4.216c.542.391.972.921 1.225 1.524a12.481 12.481 0 0 0 3.244-8.396c0-6.927-5.615-12.543-12.543-12.543-6.927 0-12.543 5.616-12.543 12.543 0 3.234 1.234 6.172 3.245 8.396a3.625 3.625 0 0 1 1.224-1.524zM9.791 26.345a12.476 12.476 0 0 0 10.205 0"/>
        <path stroke="#0F60AF" stroke-linecap="round" stroke-linejoin="round" d="M19.997 26.345a12.554 12.554 0 0 0 4.196-3.055 3.64 3.64 0 0 0-1.224-1.525l-5.83-4.215h-.002a4.014 4.014 0 0 0 2.21-3.585v-2.748a4.018 4.018 0 0 0-4.02-4.019h-.866a4.018 4.018 0 0 0-4.019 4.019v2.748c0 1.568.9 2.923 2.21 3.585h-.002l-5.83 4.215a3.635 3.635 0 0 0-1.224 1.525 12.547 12.547 0 0 0 4.195 3.055"/>
    </g>
</svg>
