<?xml version="1.0" encoding="UTF-8"?>
<svg width="70px" height="22px" viewBox="0 0 70 22" version="1.1" xmlns="http://www.w3.org/2000/svg" xmlns:xlink="http://www.w3.org/1999/xlink">
    <!-- Generator: Sketch 44.1 (41455) - http://www.bohemiancoding.com/sketch -->
    <title>ic_logo_1</title>
    <desc>Created with Sketch.</desc>
    <defs></defs>
    <g id="Page-1" stroke="none" stroke-width="1" fill="none" fill-rule="evenodd">
        <g id="header_icon-pack" transform="translate(-207.000000, -26.000000)" fill="#0F60AF">
            <g id="ic_logo_1" transform="translate(207.000000, 26.000000)">
                <polygon id="Fill-1" points="30.446478 0.619220209 30.446478 3.93143547 30.446478 4.81708902 30.446478 5.92300396 35.3370638 5.92300396 36.0654885 5.92300396 36.2766665 5.92300396 36.2766665 17.1148632 36.2766665 20.2381513 36.2766665 21.1966109 42.8538857 21.1966109 42.8538857 20.2381513 42.8538857 17.1148632 42.8538857 5.92300396 42.9683126 5.92300396 43.7525553 5.92300396 48.6840743 5.92300396 48.6840743 4.81708902 48.6840743 0.619220209"></polygon>
                <polygon id="Fill-2" points="20.3891935 0.619220209 20.3891935 19.9773397 20.4059389 20.2381513 20.4059389 20.9090731 27.308763 20.9090731 27.308763 20.2381513 27.308763 19.9773397 27.308763 17.7664314 27.308763 0.619220209"></polygon>
                <polygon id="Fill-3" points="51.5029755 0.619220209 51.5029755 3.93143547 51.5029755 4.81708902 51.5029755 5.92300396 56.3935613 5.92300396 57.121986 5.92300396 57.333164 5.92300396 57.333164 16.7462249 57.333164 17.1148632 57.333164 20.9090731 57.333164 21.1966109 63.9103832 21.1966109 63.9103832 20.2381513 63.9103832 16.7462249 63.9103832 5.92300396 64.0248101 5.92300396 64.8081225 5.92300396 69.7405718 5.92300396 69.7405718 0.619220209"></polygon>
                <polygon id="Fill-4" points="0 0.619220209 0 2.44766625 0 5.10278371 0 8.62051483 0 18.3958813 0 19.0041346 0 19.9773397 0 20.7487154 0 20.9090731 6.64885229 20.9090731 6.64885229 20.7487154 6.64885229 19.9773397 6.64885229 19.0041346 6.64885229 18.3958813 6.64885229 16.1831299 6.64885229 13.1575309 6.64885229 12.701341 15.7034597 12.701341 15.7034597 11.6802128 15.7034597 8.12100992 10.2705092 8.12100992 8.94855327 8.12100992 6.64885229 8.12100992 6.64885229 5.53409054 17.2514785 5.53409054 17.2514785 5.10278371 17.2514785 4.81708902 17.2514785 4.04847813 17.2514785 3.69642854 17.2514785 0.619220209"></polygon>
            </g>
        </g>
    </g>
</svg>